<svg id="svg" version="1.1" xmlns="http://www.w3.org/2000/svg" xmlns:xlink="http://www.w3.org/1999/xlink" width="400" height="400" viewBox="0, 0, 400,400"><g id="svgg"><path id="path0" d="M194.133 0.156 C 84.537 4.459,0.243 91.430,0.184 200.267 C 0.117 322.182,108.837 415.751,229.600 397.712 C 350.341 379.676,426.672 258.614,391.183 141.439 C 365.281 55.920,282.660 -3.319,194.133 0.156 M130.253 128.667 C 170.842 132.974,197.253 159.247,199.772 197.823 C 202.253 235.819,179.468 266.628,142.545 275.200 C 132.724 277.480,130.199 277.600,92.119 277.600 L 58.933 277.600 58.933 202.933 L 58.933 128.267 92.733 128.270 C 120.707 128.272,127.174 128.340,130.253 128.667 M304.933 129.033 C 335.626 133.917,352.116 151.495,352.120 179.333 C 352.124 202.010,341.360 217.905,320.867 225.482 C 318.446 226.378,318.176 226.541,318.495 226.913 C 318.787 227.254,329.378 242.093,352.719 274.867 L 354.666 277.600 345.911 277.600 L 337.156 277.600 320.111 253.596 L 303.067 229.593 302.133 229.733 C 298.980 230.204,290.198 230.398,271.933 230.399 L 251.200 230.400 251.200 254.000 L 251.200 277.600 243.200 277.600 L 235.200 277.600 235.200 202.920 L 235.200 128.240 268.200 128.339 C 300.784 128.437,301.247 128.446,304.933 129.033 M74.933 202.930 L 74.933 263.755 101.267 263.667 C 130.224 263.571,129.839 263.590,137.467 261.845 C 162.201 256.187,179.446 238.237,183.303 214.133 C 188.729 180.224,170.422 152.038,137.824 144.113 C 130.369 142.300,130.514 142.308,101.400 142.202 L 74.933 142.105 74.933 202.930 M251.200 179.455 L 251.200 216.800 270.733 216.794 C 295.637 216.786,301.083 216.505,307.600 214.895 C 326.598 210.201,336.132 198.353,336.111 179.467 C 336.090 160.332,326.377 148.150,307.733 143.874 C 300.728 142.268,301.396 142.302,275.267 142.202 L 251.200 142.110 251.200 179.455 " stroke="none" fill="#cccccc" fill-rule="evenodd"></path><path id="path1" d="M59.200 202.930 L 59.200 277.625 93.133 277.525 C 128.933 277.421,129.202 277.412,136.931 276.115 C 174.645 269.784,198.752 242.446,199.655 204.985 C 200.592 166.123,176.846 137.112,138.266 129.986 C 129.729 128.409,131.051 128.457,93.667 128.342 L 59.200 128.236 59.200 202.930 M235.467 202.933 L 235.467 277.600 243.199 277.600 L 250.930 277.600 250.999 253.933 L 251.067 230.267 275.467 230.074 C 288.887 229.968,300.638 229.848,301.581 229.807 L 303.296 229.733 320.266 253.600 L 337.236 277.467 345.836 277.537 C 352.264 277.590,354.388 277.530,354.247 277.301 C 354.142 277.132,345.974 265.660,336.095 251.806 C 326.216 237.953,318.133 226.538,318.133 226.439 C 318.133 226.340,319.168 225.908,320.432 225.479 C 337.619 219.644,349.251 205.464,351.597 187.488 C 355.428 158.136,339.511 136.122,310.125 130.132 C 301.914 128.458,297.429 128.278,263.800 128.272 L 235.467 128.267 235.467 202.933 M125.600 142.126 C 161.158 144.730,184.061 168.426,184.117 202.667 C 184.173 237.207,161.994 260.562,126.133 263.725 C 124.343 263.883,113.054 263.996,99.000 263.998 L 74.933 264.000 74.933 202.933 L 74.933 141.867 98.600 141.874 C 111.617 141.879,123.767 141.992,125.600 142.126 M298.837 142.261 C 322.081 144.626,334.838 156.127,336.246 175.987 C 337.678 196.181,327.592 210.160,308.133 214.951 C 301.354 216.621,301.207 216.629,275.000 216.732 L 250.933 216.826 250.933 179.346 L 250.933 141.867 273.000 141.872 C 290.241 141.876,295.891 141.961,298.837 142.261 " stroke="none" fill="#3c7cac" fill-rule="evenodd"></path><path id="path2" d="M124.333 128.450 C 124.590 128.518,125.010 128.518,125.267 128.450 C 125.523 128.383,125.313 128.329,124.800 128.329 C 124.287 128.329,124.077 128.383,124.333 128.450 M235.331 202.933 C 235.331 244.073,235.362 260.903,235.400 240.333 C 235.438 219.763,235.438 186.103,235.400 165.533 C 235.362 144.963,235.331 161.793,235.331 202.933 M294.467 128.458 C 294.870 128.519,295.530 128.519,295.933 128.458 C 296.337 128.397,296.007 128.347,295.200 128.347 C 294.393 128.347,294.063 128.397,294.467 128.458 M121.400 142.058 C 121.803 142.119,122.463 142.119,122.867 142.058 C 123.270 141.997,122.940 141.947,122.133 141.947 C 121.327 141.947,120.997 141.997,121.400 142.058 M251.063 179.333 C 251.063 200.013,251.095 208.513,251.133 198.221 C 251.172 187.929,251.172 171.009,251.133 160.621 C 251.095 150.233,251.063 158.653,251.063 179.333 M293.533 142.060 C 294.010 142.119,294.790 142.119,295.267 142.060 C 295.743 142.000,295.353 141.952,294.400 141.952 C 293.447 141.952,293.057 142.000,293.533 142.060 M167.467 160.133 C 168.412 161.087,169.245 161.867,169.318 161.867 C 169.391 161.867,168.678 161.087,167.733 160.133 C 166.788 159.180,165.955 158.400,165.882 158.400 C 165.809 158.400,166.522 159.180,167.467 160.133 M352.085 177.867 C 352.085 178.820,352.134 179.210,352.193 178.733 C 352.252 178.257,352.252 177.477,352.193 177.000 C 352.134 176.523,352.085 176.913,352.085 177.867 M336.339 179.467 C 336.339 180.127,336.391 180.397,336.455 180.067 C 336.518 179.737,336.518 179.197,336.455 178.867 C 336.391 178.537,336.339 178.807,336.339 179.467 M352.085 181.333 C 352.085 182.287,352.134 182.677,352.193 182.200 C 352.252 181.723,352.252 180.943,352.193 180.467 C 352.134 179.990,352.085 180.380,352.085 181.333 M199.806 202.933 C 199.806 203.593,199.858 203.863,199.922 203.533 C 199.985 203.203,199.985 202.663,199.922 202.333 C 199.858 202.003,199.806 202.273,199.806 202.933 M251.056 230.467 C 250.986 230.650,250.961 241.360,250.999 254.267 L 251.070 277.733 251.135 254.068 L 251.200 230.403 271.533 230.333 L 291.867 230.263 271.525 230.198 C 255.449 230.147,251.157 230.203,251.056 230.467 M167.325 245.933 L 165.733 247.600 167.400 246.008 C 168.317 245.133,169.067 244.383,169.067 244.342 C 169.067 244.145,168.803 244.385,167.325 245.933 M122.870 263.922 C 123.201 263.986,123.681 263.983,123.936 263.917 C 124.191 263.850,123.920 263.798,123.333 263.801 C 122.747 263.804,122.538 263.858,122.870 263.922 " stroke="none" fill="#85a4bc" fill-rule="evenodd"></path><path id="path3" d="M59.065 202.933 C 59.065 244.073,59.096 260.903,59.133 240.333 C 59.171 219.763,59.171 186.103,59.133 165.533 C 59.096 144.963,59.065 161.793,59.065 202.933 M86.087 142.067 C 92.294 142.107,102.374 142.106,108.487 142.067 C 114.599 142.027,109.520 141.994,97.200 141.994 C 84.880 141.994,79.879 142.027,86.087 142.067 M261.114 142.067 C 266.639 142.107,275.759 142.107,281.380 142.067 C 287.001 142.026,282.480 141.993,271.333 141.993 C 260.187 141.993,255.588 142.026,261.114 142.067 M177.333 148.607 C 177.333 148.647,178.263 149.577,179.400 150.673 L 181.467 152.667 179.473 150.600 C 177.622 148.681,177.333 148.412,177.333 148.607 M184.062 199.467 C 184.062 199.980,184.117 200.190,184.184 199.933 C 184.251 199.677,184.251 199.257,184.184 199.000 C 184.117 198.743,184.062 198.953,184.062 199.467 M199.795 199.733 C 199.795 200.247,199.850 200.457,199.917 200.200 C 199.984 199.943,199.984 199.523,199.917 199.267 C 199.850 199.010,199.795 199.220,199.795 199.733 M199.795 205.867 C 199.795 206.380,199.850 206.590,199.917 206.333 C 199.984 206.077,199.984 205.657,199.917 205.400 C 199.850 205.143,199.795 205.353,199.795 205.867 M340.383 212.600 L 339.600 213.467 340.467 212.683 C 341.275 211.953,341.456 211.733,341.250 211.733 C 341.204 211.733,340.814 212.123,340.383 212.600 M292.467 216.722 C 292.797 216.785,293.337 216.785,293.667 216.722 C 293.997 216.658,293.727 216.606,293.067 216.606 C 292.407 216.606,292.137 216.658,292.467 216.722 M293.133 230.317 C 293.390 230.384,293.810 230.384,294.067 230.317 C 294.323 230.250,294.113 230.195,293.600 230.195 C 293.087 230.195,292.877 230.250,293.133 230.317 M86.220 263.933 C 92.501 263.973,102.701 263.973,108.887 263.933 C 115.072 263.893,109.933 263.861,97.467 263.861 C 85.000 263.861,79.939 263.893,86.220 263.933 " stroke="none" fill="#aabac4" fill-rule="evenodd"></path><path id="path4" d="M120.604 263.925 C 121.009 263.986,121.609 263.984,121.937 263.921 C 122.265 263.858,121.933 263.808,121.200 263.810 C 120.467 263.812,120.198 263.863,120.604 263.925 " stroke="none" fill="#94adbe" fill-rule="evenodd"></path></g></svg>